<svg width="1000" height="193" viewBox="0 0 1000 193" fill="none" xmlns="http://www.w3.org/2000/svg">
<path d="M703.259 74.9141C703.441 75.5482 703.779 76.1272 704.242 76.5986C704.604 76.8967 705.036 77.0995 705.497 77.1882H726.566C727.08 76.9952 727.548 76.6968 727.939 76.3122C728.291 75.8661 728.524 75.3389 728.617 74.7793V33.8296C728.617 16.0415 721.837 2.00977 699.53 2.00977C687.411 2.00977 679.411 5.783 673.512 15.1656C669.105 6.2715 659.647 2.04346 648.087 2.04346C635.764 2.04346 627.475 8.0739 624.102 13.8348H623.746V5.05868C623.599 4.82392 623.428 4.60391 623.238 4.40173C622.833 4.09408 622.364 3.88104 621.865 3.77847H600.966C600.415 3.97276 599.916 4.28967 599.508 4.70494L599.389 4.85654V74.813C599.571 75.4509 599.915 76.0312 600.389 76.4975C600.88 76.878 601.466 77.1169 602.084 77.1882H622.424C623.065 77.0148 623.65 76.678 624.119 76.2112C624.46 75.773 624.687 75.2581 624.78 74.712V40.6349C624.78 31.1176 626.814 21.9203 640.036 21.9203C651.697 21.9203 651.358 32.9368 651.358 38.3609V74.9983C651.554 75.5364 651.867 76.0252 652.273 76.4301C652.771 76.8016 653.353 77.0447 653.968 77.1376H674.156C674.834 77.0086 675.447 76.6553 675.897 76.1352C676.346 75.6151 676.605 74.9591 676.631 74.274V38.3609C676.631 29.3152 680.343 21.9203 692.021 21.9203C700.293 21.9203 703.175 27.6476 703.175 34.436L703.259 74.9141Z" fill="#141414"/>
<path d="M823.858 44.3901V40.4315C823.858 17.0341 808.467 1.95801 783.991 1.95801C757.753 1.95801 736.768 17.1183 736.768 40.4315C736.768 63.7448 757.753 78.9051 783.991 78.9051C796.704 78.9051 809.552 74.3233 818.044 66.2546C818.382 65.7491 818.597 65.1724 818.671 64.5701C818.636 64.1405 818.464 63.7333 818.18 63.4079L802.925 53.7052C802.475 53.4789 801.962 53.4078 801.467 53.5031C801.099 53.6238 800.755 53.8061 800.45 54.0421C798.251 56.5123 795.54 58.4796 792.502 59.8086C789.465 61.1375 786.174 61.7965 782.856 61.7402C773.431 61.7402 765.821 57.2258 763.16 49.6625C762.956 49.0729 762.702 48.1633 763.397 47.7085C763.923 47.4499 764.528 47.3958 765.092 47.5569H821.417C822.104 47.3823 822.73 47.0273 823.231 46.5294C823.612 45.8776 823.827 45.1433 823.858 44.3901V44.3901ZM795.975 32.1776H764.109C764.109 32.1776 763.346 32.2787 763.194 31.8238C763.079 31.4219 763.079 30.9962 763.194 30.5942C764.6 24.1089 770.804 18.2975 781.466 18.2975C790.178 18.2975 796.721 23.6878 797.484 30.4426C797.523 30.6688 797.508 30.901 797.44 31.1204C797.372 31.3398 797.254 31.5404 797.094 31.7059C796.798 32.0038 796.396 32.1734 795.975 32.1776V32.1776Z" fill="#141414"/>
<path d="M961.165 2.00977C948.503 2.00977 935.74 5.37873 926.248 11.8808C925.366 12.4872 924.926 12.7568 924.926 13.919C924.897 14.2084 924.945 14.5001 925.064 14.7658C925.183 15.0314 925.369 15.262 925.604 15.4351L934.079 24.1607C934.287 24.4093 934.545 24.6114 934.837 24.7537C935.13 24.896 935.449 24.9751 935.774 24.9861C936.723 24.9861 937.164 24.447 937.876 23.9417C945.435 18.703 952.046 16.7321 959.673 16.8669C971.115 17.0859 974.929 21.9203 975.844 29.0794C975.874 29.2624 975.863 29.4499 975.81 29.6279C975.757 29.8058 975.664 29.9696 975.539 30.1069C975.444 30.2585 975.307 30.3792 975.145 30.4541C974.982 30.5289 974.801 30.5546 974.623 30.528C952.673 30.528 918.4 31.4713 918.4 56.3174C918.4 71.1072 932.74 78.9568 948.639 78.9568C958.978 78.9568 969.115 75.9921 974.996 68.6983C975.062 68.5986 975.16 68.5241 975.274 68.4874C975.388 68.4506 975.511 68.4537 975.624 68.4962C975.963 68.4962 975.929 69.2374 975.929 69.2374V74.6446C975.929 74.6446 975.929 76.1269 976.471 76.6828C976.965 77.0269 977.565 77.1879 978.166 77.1376H997.32C997.996 77.2337 998.682 77.0645 999.235 76.6659C999.489 76.423 999.689 76.1293 999.82 75.804C999.952 75.4788 1000.01 75.1295 999.998 74.7793V39.8769C999.981 15.4351 991.76 2.00977 961.165 2.00977ZM975.708 50.0848C975.708 56.6712 966.843 63.5607 955.911 63.5607C950.131 63.5607 943.486 61.0003 943.486 55.5762C943.486 45.621 961.623 44.3408 969.369 45.0145C971.016 45.213 972.595 45.7897 973.979 46.699C974.896 47.6215 975.5 48.805 975.708 50.0848V50.0848Z" fill="#141414"/>
<path d="M728.705 162.704V93.5057C728.511 92.9057 728.18 92.3582 727.739 91.9055C727.244 91.5336 726.66 91.2957 726.044 91.2148H705.704C705.065 91.4026 704.483 91.744 704.009 92.2087C703.535 92.8857 703.254 93.6771 703.195 94.4996V162.637C703.383 163.1 703.666 163.518 704.026 163.866C704.482 164.226 705.026 164.458 705.602 164.54H726.519C727.129 164.361 727.683 164.031 728.129 163.58C728.387 163.337 728.584 163.037 728.705 162.704Z" fill="#141414"/>
<path d="M823.004 162.163V124.111C823.004 104.504 818.106 89.4106 791.528 89.4106C779.799 89.4106 771.612 94.4641 767.645 99.787C767.374 100.158 766.967 100.663 766.645 100.511C766.323 100.36 766.34 99.5512 766.34 99.5512V93.2513C766.141 92.7473 765.842 92.2888 765.459 91.9037C764.963 91.5318 764.379 91.2939 763.764 91.213H742.949C742.485 91.4201 742.061 91.705 741.695 92.0553C741.383 92.4435 741.168 92.8995 741.068 93.386V162.45C741.262 163.048 741.6 163.592 742.051 164.033C742.345 164.293 742.701 164.472 743.085 164.555H765.544C766.003 164.365 766.423 164.091 766.781 163.747C767.032 163.442 767.212 163.085 767.306 162.702V128.019C767.306 118.518 769.408 109.304 783.053 109.304C796.698 109.304 796.613 120.169 796.613 128.625V162.584C796.806 163.068 797.101 163.504 797.478 163.865C797.927 164.224 798.466 164.457 799.037 164.538H820.598C821.208 164.359 821.762 164.029 822.208 163.578C822.59 163.182 822.864 162.695 823.004 162.163Z" fill="#141414"/>
<path d="M862.861 111.745C863.037 111.525 863.258 111.344 863.509 111.213C863.76 111.083 864.036 111.006 864.319 110.987H867.2C872.76 110.802 880.845 109.892 882.998 109.875C900.236 109.673 912.44 95.3384 912.44 70.9977V6.49897C912.416 5.7349 912.093 5.01014 911.542 4.47759C911.318 4.25887 911.053 4.08661 910.762 3.97092C910.471 3.85522 910.16 3.7984 909.847 3.8038H892.066C891.461 3.8061 890.871 3.98794 890.371 4.32599C889.676 4.79764 889.693 6.21261 889.693 6.21261V10.6933C889.693 11.1818 889.337 11.3503 888.913 11.3503C888.445 11.3123 888.006 11.1092 887.676 10.7775C883.981 7.17276 877.506 3.02894 863.319 3.34899C837.775 3.93856 830.215 30.7892 830.215 40.4918C830.215 58.5494 839.927 77.3145 866.166 77.3145C873.573 77.3145 882.608 75.7648 888.642 69.5996C889.015 69.2121 889.083 69.3637 889.54 69.3637C889.998 69.3637 890.083 70.3913 890.083 70.3913V75.4447C890.083 87.4214 883.642 92.8285 874.116 92.8285H870.116H864.268C864.041 92.8961 863.801 92.902 863.571 92.8457C863.342 92.7894 863.131 92.6729 862.963 92.5085C862.697 92.1878 862.504 91.8145 862.396 91.4136C862.288 91.0127 862.267 90.5934 862.335 90.1839V85.1305C862.335 85.1305 862.488 84.7767 861.793 83.8166C861.215 83.2026 860.432 82.8193 859.59 82.7385H838.741C838.154 82.8874 837.606 83.1572 837.131 83.5302C836.586 84.0195 836.242 84.6912 836.164 85.4168V91.2957C836.179 91.4592 836.154 91.6237 836.092 91.7759C836.03 91.9281 835.933 92.0637 835.809 92.1716C835.356 92.4458 834.865 92.6503 834.351 92.778H827.927C827.927 92.778 827.605 92.778 826.774 93.5529C826.542 94.0266 826.409 94.5425 826.384 95.0689V109.488C826.384 109.488 826.384 110.516 826.74 110.802C827.097 111.015 827.512 111.11 827.927 111.071H834.215C834.215 111.071 834.605 110.886 835.673 111.678C836.249 112.099 836.164 113.127 836.164 113.127V144.171C836.164 160.174 849.623 166.356 867.115 166.356C868.997 166.356 871.2 166.255 873.539 166.053C873.815 166.059 874.088 166.004 874.34 165.894C874.592 165.783 874.816 165.619 874.997 165.413C875.196 165.002 875.305 164.554 875.319 164.099V149.73C875.36 148.994 875.292 148.256 875.116 147.54C874.523 146.985 873.963 147.153 873.421 147.119C863.844 146.496 862.437 141.139 862.437 133.778V112.756C862.496 112.39 862.641 112.044 862.861 111.745V111.745ZM869.76 59.3916C856.047 59.3916 850.301 51.4577 850.301 39.9359C850.301 28.414 860.793 21.0023 868.166 21.0023C885.506 21.0023 889.489 33.5349 889.489 40.5423C889.489 56.309 873.912 59.3916 869.76 59.3916V59.3916Z" fill="#141414"/>
<path d="M650.019 167.996C676.292 167.996 694.496 152.027 694.496 128.057C694.496 104.086 676.292 89.1113 650.019 89.1113C623.746 89.1113 605.423 104.659 605.423 128.646C605.423 152.633 623.763 167.996 650.019 167.996ZM650.019 109.527C667.393 109.527 671.037 120.156 671.037 128.562C671.037 145.154 656.952 147.58 650.019 147.58C637.9 147.58 629.018 140.842 629.018 128.562C629.018 118.607 632.781 109.494 650.019 109.494V109.527Z" fill="#141414"/>
<path d="M907.69 166.259C918.221 166.259 926.759 158.718 926.759 149.415C926.759 140.112 918.221 132.57 907.69 132.57C897.158 132.57 888.621 140.112 888.621 149.415C888.621 158.718 897.158 166.259 907.69 166.259Z" fill="#141414"/>
<path d="M558.479 90.04C546.614 90.04 538.138 94.6724 534.138 99.9448H533.782V92.3141C533.584 91.7958 533.278 91.325 532.884 90.9328C532.466 90.6122 531.978 90.393 531.46 90.2927H512.307C511.724 90.4807 511.195 90.8041 510.764 91.236C510.479 91.5837 510.282 91.9936 510.188 92.432V190.014C510.377 190.593 510.702 191.118 511.137 191.547C511.375 191.763 511.659 191.924 511.968 192.019H532.731C533.14 191.839 533.508 191.582 533.816 191.261C533.977 191.089 534.103 190.889 534.189 190.671V155.769H534.528C540.478 162.86 550.631 165.438 561.462 165.438C585.7 165.438 600.294 146.723 600.294 126.341C600.294 104.173 583.649 90.04 558.479 90.04ZM557.529 145.51C544.41 145.51 536.545 137.964 536.545 126.981C536.545 115.998 545.851 108.451 557.529 108.451C570.649 108.451 578.514 115.998 578.514 126.981C578.514 137.694 572.835 145.51 557.529 145.51V145.51Z" fill="#141414"/>
<path d="M545.601 78.8843C571.857 78.8843 590.061 62.9154 590.061 38.9452C590.061 14.975 571.857 0 545.601 0C519.345 0 500.989 15.5478 500.989 39.5348C500.989 63.5218 519.329 78.8843 545.601 78.8843ZM545.601 20.4159C562.975 20.4159 566.602 31.045 566.602 39.4506C566.602 56.0427 552.517 58.4684 545.601 58.4684C533.465 58.4684 524.583 51.7304 524.583 39.4506C524.583 29.4953 528.346 20.4159 545.601 20.4159V20.4159Z" fill="#141414"/>
<path d="M11.3125 168.569C9.18538 168.569 7.19887 168.367 5.35301 167.963C3.52472 167.558 1.76676 166.978 0.0791085 166.222L0 158.153H5.35301L6.38142 162.267C6.97913 162.566 7.62957 162.803 8.33276 162.979C9.05353 163.155 9.87098 163.242 10.7851 163.242C12.5079 163.242 13.7209 162.961 14.4241 162.399C15.1273 161.836 15.4789 161.133 15.4789 160.289C15.4789 159.498 15.1009 158.804 14.345 158.206C13.6067 157.591 12.1212 157.054 9.88856 156.597C6.51327 155.894 4.02574 154.804 2.42599 153.327C0.826244 151.851 0.0263695 149.961 0.0263695 147.658C0.0263695 146.076 0.421912 144.634 1.213 143.333C2.02166 142.033 3.24345 140.987 4.87836 140.195C6.53085 139.404 8.64041 139.009 11.207 139.009C13.3518 139.009 15.3119 139.22 17.0874 139.642C18.8806 140.046 20.3836 140.582 21.5966 141.25L21.6757 149.056H16.3491L15.5316 145.311C15.057 144.96 14.4944 144.696 13.844 144.52C13.2111 144.344 12.4904 144.256 11.6817 144.256C10.3281 144.256 9.29085 144.529 8.57009 145.074C7.84932 145.619 7.48894 146.322 7.48894 147.183C7.48894 147.676 7.612 148.133 7.85811 148.555C8.12181 148.977 8.63162 149.372 9.38754 149.741C10.1435 150.11 11.2422 150.462 12.6837 150.796C16.2172 151.605 18.7927 152.686 20.41 154.039C22.0273 155.376 22.836 157.257 22.836 159.683C22.836 162.337 21.8691 164.482 19.9353 166.117C18.0192 167.752 15.1449 168.569 11.3125 168.569Z" fill="#141414"/>
<path d="M41.0826 168.569C38.3578 168.569 35.9757 167.971 33.9365 166.776C31.8972 165.563 30.3151 163.902 29.19 161.792C28.0825 159.683 27.5287 157.274 27.5287 154.567V153.512C27.5287 150.682 28.0561 148.177 29.1109 145.997C30.1657 143.799 31.6511 142.077 33.5673 140.828C35.5011 139.563 37.7776 138.939 40.397 138.956C42.9812 138.956 45.1523 139.466 46.9103 140.486C48.6683 141.505 50.0043 142.973 50.9184 144.889C51.8326 146.805 52.2897 149.126 52.2897 151.851V156.044H35.5187L35.4659 156.202C35.5714 157.45 35.879 158.566 36.3889 159.551C36.9162 160.518 37.6546 161.282 38.6039 161.845C39.5532 162.39 40.7047 162.662 42.0583 162.662C43.4647 162.662 44.7744 162.486 45.9874 162.135C47.2179 161.766 48.4133 161.23 49.5736 160.526L51.6568 165.273C50.479 166.222 48.9935 167.013 47.2003 167.646C45.4248 168.261 43.3856 168.569 41.0826 168.569ZM35.5714 150.954H45.0908V150.269C45.0908 149.108 44.9326 148.115 44.6161 147.289C44.3173 146.445 43.8251 145.795 43.1394 145.338C42.4714 144.88 41.6012 144.652 40.5289 144.652C39.5092 144.652 38.6478 144.924 37.9447 145.469C37.2415 145.997 36.6877 146.726 36.2834 147.658C35.8966 148.59 35.6329 149.645 35.4923 150.822L35.5714 150.954Z" fill="#141414"/>
<path d="M70.3517 168.569C67.6093 168.569 65.236 167.954 63.2319 166.723C61.2454 165.493 59.716 163.796 58.6437 161.634C57.5713 159.454 57.0351 156.966 57.0351 154.171V153.38C57.0351 150.567 57.5801 148.08 58.67 145.918C59.76 143.755 61.2982 142.059 63.2847 140.828C65.2712 139.58 67.6093 138.956 70.299 138.956C72.8656 138.956 75.0719 139.36 76.9177 140.169C78.7812 140.96 80.293 141.883 81.4533 142.938L81.4005 151.112H75.5992L74.5708 146.023C74.1489 145.601 73.6127 145.258 72.9623 144.995C72.3118 144.731 71.6526 144.599 70.9846 144.599C69.5782 144.599 68.4092 144.951 67.4774 145.654C66.5633 146.357 65.8777 147.359 65.4206 148.66C64.9635 149.961 64.735 151.534 64.735 153.38V154.171C64.735 156.123 64.9899 157.731 65.4997 158.997C66.0095 160.245 66.6864 161.168 67.5302 161.766C68.3916 162.363 69.3497 162.662 70.4045 162.662C71.7581 162.662 72.8392 162.311 73.6479 161.608C74.4741 160.887 75.0367 159.876 75.3355 158.575H81.9279L82.007 158.733C81.7082 160.755 81.1105 162.504 80.2139 163.981C79.3349 165.457 78.0868 166.591 76.4694 167.382C74.8697 168.174 72.8304 168.569 70.3517 168.569Z" fill="#141414"/>
<path d="M98.6451 168.569C95.639 168.569 93.2745 167.62 91.5517 165.721C89.8465 163.805 88.9939 160.834 88.9939 156.808V144.916L85.8559 144.125V139.484H88.9939H96.6938V156.861C96.6938 158.9 97.0454 160.368 97.7486 161.265C98.4693 162.144 99.5505 162.583 100.992 162.583C102.135 162.583 103.146 162.363 104.025 161.924C104.903 161.467 105.624 160.825 106.187 159.999V144.916L102.785 144.125V139.484H106.187H113.887V162.61L117.315 163.401V168.015H107.136L106.609 164.403C105.712 165.739 104.587 166.767 103.233 167.488C101.88 168.209 100.35 168.569 98.6451 168.569Z" fill="#141414"/>
<path d="M121.849 168.015V163.401L125.541 162.61V144.916L121.454 144.125V139.484H132.713L133.004 143.017L133.056 143.65C133.759 142.103 134.63 140.934 135.667 140.143C136.704 139.352 137.943 138.956 139.385 138.956C139.842 138.956 140.343 139 140.888 139.088C141.433 139.158 141.916 139.255 142.338 139.378L141.521 146.471L137.697 146.26C136.607 146.208 135.72 146.392 135.034 146.814C134.366 147.236 133.768 147.843 133.241 148.634V162.61L136.933 163.401V168.015H121.849Z" fill="#141414"/>
<path d="M158.845 168.569C156.12 168.569 153.738 167.971 151.698 166.776C149.659 165.563 148.077 163.902 146.952 161.792C145.844 159.683 145.291 157.274 145.291 154.567V153.512C145.291 150.682 145.818 148.177 146.873 145.997C147.928 143.799 149.413 142.077 151.329 140.828C153.263 139.563 155.54 138.939 158.159 138.956C160.743 138.956 162.914 139.466 164.672 140.486C166.43 141.505 167.766 142.973 168.68 144.889C169.595 146.805 170.052 149.126 170.052 151.851V156.044H153.281L153.228 156.202C153.333 157.45 153.641 158.566 154.151 159.551C154.678 160.518 155.417 161.282 156.366 161.845C157.315 162.39 158.467 162.662 159.82 162.662C161.227 162.662 162.536 162.486 163.749 162.135C164.98 161.766 166.175 161.23 167.336 160.526L169.419 165.273C168.241 166.222 166.755 167.013 164.962 167.646C163.187 168.261 161.148 168.569 158.845 168.569ZM153.333 150.954H162.853V150.269C162.853 149.108 162.695 148.115 162.378 147.289C162.079 146.445 161.587 145.795 160.901 145.338C160.233 144.88 159.363 144.652 158.291 144.652C157.271 144.652 156.41 144.924 155.707 145.469C155.003 145.997 154.45 146.726 154.045 147.658C153.659 148.59 153.395 149.645 153.254 150.822L153.333 150.954Z" fill="#141414"/>
<path d="M200.216 168.569C197.562 168.569 195.514 167.84 194.072 166.38C192.648 164.921 191.936 162.61 191.936 159.445V144.889H188.007V139.484H191.936V132.496H199.61V139.484H204.857V144.889H199.61V159.419C199.61 160.526 199.838 161.317 200.295 161.792C200.77 162.267 201.412 162.504 202.22 162.504C202.66 162.504 203.117 162.478 203.592 162.425C204.084 162.355 204.506 162.284 204.857 162.214L205.517 167.778C204.725 168.007 203.864 168.191 202.932 168.332C202.018 168.49 201.113 168.569 200.216 168.569Z" fill="#141414"/>
<path d="M222.471 168.569C219.658 168.569 217.241 167.954 215.219 166.723C213.198 165.493 211.651 163.787 210.578 161.608C209.506 159.41 208.97 156.887 208.97 154.039V153.486C208.97 150.655 209.506 148.15 210.578 145.97C211.651 143.773 213.189 142.059 215.193 140.828C217.215 139.58 219.623 138.956 222.418 138.956C225.249 138.956 227.666 139.58 229.67 140.828C231.674 142.059 233.212 143.764 234.285 145.944C235.357 148.124 235.893 150.638 235.893 153.486V154.039C235.893 156.887 235.357 159.41 234.285 161.608C233.212 163.787 231.674 165.493 229.67 166.723C227.666 167.954 225.266 168.569 222.471 168.569ZM222.471 162.662C223.807 162.662 224.897 162.302 225.741 161.581C226.585 160.86 227.209 159.858 227.613 158.575C228.017 157.274 228.22 155.762 228.22 154.039V153.486C228.22 151.798 228.017 150.313 227.613 149.029C227.209 147.728 226.576 146.718 225.714 145.997C224.871 145.258 223.772 144.889 222.418 144.889C221.1 144.889 220.01 145.258 219.148 145.997C218.287 146.718 217.654 147.728 217.25 149.029C216.863 150.313 216.67 151.798 216.67 153.486V154.039C216.67 155.762 216.863 157.274 217.25 158.575C217.654 159.876 218.287 160.887 219.148 161.608C220.01 162.311 221.117 162.662 222.471 162.662Z" fill="#141414"/>
<path d="M268.405 168.569C265.68 168.569 263.298 167.971 261.258 166.776C259.219 165.563 257.637 163.902 256.512 161.792C255.404 159.683 254.851 157.274 254.851 154.567V153.512C254.851 150.682 255.378 148.177 256.433 145.997C257.488 143.799 258.973 142.077 260.889 140.828C262.823 139.563 265.1 138.939 267.719 138.956C270.303 138.956 272.474 139.466 274.232 140.486C275.99 141.505 277.326 142.973 278.24 144.889C279.155 146.805 279.612 149.126 279.612 151.851V156.044H262.841L262.788 156.202C262.893 157.45 263.201 158.566 263.711 159.551C264.238 160.518 264.977 161.282 265.926 161.845C266.875 162.39 268.027 162.662 269.38 162.662C270.787 162.662 272.096 162.486 273.309 162.135C274.54 161.766 275.735 161.23 276.896 160.526L278.979 165.273C277.801 166.222 276.315 167.013 274.522 167.646C272.747 168.261 270.708 168.569 268.405 168.569ZM262.893 150.954H272.413V150.269C272.413 149.108 272.255 148.115 271.938 147.289C271.639 146.445 271.147 145.795 270.461 145.338C269.793 144.88 268.923 144.652 267.851 144.652C266.831 144.652 265.97 144.924 265.267 145.469C264.563 145.997 264.01 146.726 263.605 147.658C263.219 148.59 262.955 149.645 262.814 150.822L262.893 150.954Z" fill="#141414"/>
<path d="M294.193 168.015L285.57 144.599L282.485 144.125V139.484H296.329V144.098L293.323 144.626L297.621 157.573L298.28 159.788H298.438L299.177 157.573L303.897 144.652L300.39 144.098V139.484H314.207V144.125L311.043 144.652L302.025 168.015H294.193Z" fill="#141414"/>
<path d="M330.582 168.569C327.769 168.569 325.352 167.954 323.33 166.723C321.308 165.493 319.761 163.787 318.689 161.608C317.617 159.41 317.081 156.887 317.081 154.039V153.486C317.081 150.655 317.617 148.15 318.689 145.97C319.761 143.773 321.3 142.059 323.304 140.828C325.325 139.58 327.734 138.956 330.529 138.956C333.359 138.956 335.777 139.58 337.781 140.828C339.785 142.059 341.323 143.764 342.395 145.944C343.468 148.124 344.004 150.638 344.004 153.486V154.039C344.004 156.887 343.468 159.41 342.395 161.608C341.323 163.787 339.785 165.493 337.781 166.723C335.777 167.954 333.377 168.569 330.582 168.569ZM330.582 162.662C331.918 162.662 333.008 162.302 333.852 161.581C334.695 160.86 335.319 159.858 335.724 158.575C336.128 157.274 336.33 155.762 336.33 154.039V153.486C336.33 151.798 336.128 150.313 335.724 149.029C335.319 147.728 334.687 146.718 333.825 145.997C332.981 145.258 331.883 144.889 330.529 144.889C329.211 144.889 328.121 145.258 327.259 145.997C326.398 146.718 325.765 147.728 325.361 149.029C324.974 150.313 324.78 151.798 324.78 153.486V154.039C324.78 155.762 324.974 157.274 325.361 158.575C325.765 159.876 326.398 160.887 327.259 161.608C328.121 162.311 329.228 162.662 330.582 162.662Z" fill="#141414"/>
<path d="M347.589 168.015V163.401L351.307 162.61V132.311L347.193 131.52V126.879H359.007V162.61L362.725 163.401V168.015H347.589Z" fill="#141414"/>
<path d="M376.964 168.015L368.341 144.599L365.256 144.125V139.484H379.1V144.098L376.093 144.626L380.392 157.573L381.051 159.788H381.209L381.947 157.573L386.668 144.652L383.16 144.098V139.484H396.978V144.125L393.814 144.652L384.795 168.015H376.964Z" fill="#141414"/>
<path d="M413.405 168.569C410.68 168.569 408.298 167.971 406.259 166.776C404.22 165.563 402.638 163.902 401.513 161.792C400.405 159.683 399.851 157.274 399.851 154.567V153.512C399.851 150.682 400.379 148.177 401.433 145.997C402.488 143.799 403.974 142.077 405.89 140.828C407.824 139.563 410.1 138.939 412.72 138.956C415.304 138.956 417.475 139.466 419.233 140.486C420.991 141.505 422.327 142.973 423.241 144.889C424.155 146.805 424.612 149.126 424.612 151.851V156.044H407.841L407.788 156.202C407.894 157.45 408.202 158.566 408.711 159.551C409.239 160.518 409.977 161.282 410.926 161.845C411.876 162.39 413.027 162.662 414.381 162.662C415.787 162.662 417.097 162.486 418.31 162.135C419.54 161.766 420.736 161.23 421.896 160.526L423.979 165.273C422.801 166.222 421.316 167.013 419.523 167.646C417.747 168.261 415.708 168.569 413.405 168.569ZM407.894 150.954H417.413V150.269C417.413 149.108 417.255 148.115 416.939 147.289C416.64 146.445 416.148 145.795 415.462 145.338C414.794 144.88 413.924 144.652 412.851 144.652C411.832 144.652 410.97 144.924 410.267 145.469C409.564 145.997 409.01 146.726 408.606 147.658C408.219 148.59 407.955 149.645 407.815 150.822L407.894 150.954Z" fill="#141414"/>
</svg>
